Coordinates
version=1
nRows=60
nColumns=12
inDegrees=yes

Units are S.I. units (second, meters, Newtons, ...)
Angles are in degrees

endheader
time	SC_y	SC_z	SC_x	AC_y	AC_z	AC_x	GH_y	GH_z	GH_yy	EL_x	PS_y
       0.0              -24.96          1.845          45.11          69.18         -19.55         -16.87          123.3          57.61         -107.0          62.81          114.3
   0.04136              -24.96          1.845          45.11          69.18         -19.55         -16.86          123.3           57.6         -107.0          62.82          114.3
   0.08272              -24.96          1.845          45.11          69.18         -19.55         -16.86          123.2           57.6         -106.9          62.83          114.3
    0.1241              -24.96          1.845          45.11          69.17         -19.55         -16.86          123.2           57.6         -106.9          62.83          114.3
    0.1654              -24.96          1.845          45.12          69.17         -19.55         -16.85          123.1           57.6         -106.9          62.84          114.3
    0.2068              -24.97          1.845          45.12          69.16         -19.54         -16.85          123.1          57.59         -106.8          62.85          114.3
    0.2482              -24.97          1.846          45.12          69.16         -19.54         -16.84          123.0          57.59         -106.8          62.86          114.3
    0.2895              -24.97          1.846          45.13          69.15         -19.54         -16.84          123.0          57.59         -106.7          62.87          114.3
    0.3309              -24.97          1.846          45.13          69.14         -19.54         -16.83          122.9          57.58         -106.7          62.88          114.3
    0.3723              -24.98          1.846          45.13          69.14         -19.53         -16.83          122.9          57.58         -106.6           62.9          114.4
    0.4136              -24.98          1.846          45.14          69.13         -19.53         -16.82          122.8          57.58         -106.6          62.91          114.4
     0.455              -24.98          1.847          45.14          69.12         -19.53         -16.82          122.7          57.57         -106.5          62.92          114.4
    0.4963              -24.99          1.847          45.15          69.12         -19.52         -16.81          122.6          57.57         -106.5          62.94          114.4
    0.5377              -24.99          1.847          45.15          69.11         -19.52          -16.8          122.6          57.56         -106.4          62.96          114.4
    0.5791               -25.0          1.848          45.16           69.1         -19.52          -16.8          122.5          57.56         -106.3          62.97          114.4
    0.6204               -25.0          1.848          45.17          69.09         -19.51         -16.79          122.4          57.55         -106.2          62.99          114.4
    0.6618              -25.01          1.848          45.17          69.08         -19.51         -16.78          122.2          57.54         -106.1          63.01          114.4
    0.7032              -25.01          1.849          45.18          69.06          -19.5         -16.77          122.1          57.54         -106.0          63.04          114.4
    0.7445              -25.02          1.849          45.19          69.05          -19.5         -16.76          122.0          57.53         -105.9          63.06          114.4
    0.7859              -25.03           1.85           45.2          69.04         -19.49         -16.75          121.9          57.52         -105.8          63.09          114.5
    0.8272              -25.03          1.851          45.21          69.02         -19.48         -16.73          121.7          57.51         -105.7          63.12          114.5
    0.8686              -25.04          1.851          45.22           69.0         -19.47         -16.72          121.5           57.5         -105.5          63.15          114.5
      0.91              -25.05          1.852          45.23          68.98         -19.47          -16.7          121.3          57.49         -105.4          63.19          114.5
    0.9513              -25.06          1.853          45.24          68.96         -19.46         -16.69          121.1          57.48         -105.2          63.23          114.5
    0.9927              -25.07          1.854          45.26          68.94         -19.45         -16.67          120.9          57.47         -105.0          63.27          114.6
     1.034              -25.08          1.855          45.28          68.91         -19.43         -16.64          120.6          57.45         -104.8          63.32          114.6
     1.075               -25.1          1.856          45.29          68.88         -19.42         -16.62          120.3          57.43         -104.5          63.38          114.6
     1.117              -25.11          1.857          45.32          68.85         -19.41         -16.59          120.0          57.41         -104.3          63.44          114.6
     1.158              -25.13          1.858          45.34          68.81         -19.39         -16.56          119.6          57.39         -104.0          63.51          114.7
       1.2              -25.15           1.86          45.37          68.77         -19.37         -16.53          119.2          57.37         -103.6          63.59          114.7
     1.241              -25.17          1.862           45.4          68.72         -19.35         -16.49          118.7          57.34         -103.2          63.68          114.8
     1.282               -25.2          1.864          45.43          68.66         -19.33         -16.44          118.1          57.31         -102.8          63.79          114.8
     1.324              -25.23          1.866          45.47           68.6          -19.3         -16.39          117.5          57.27         -102.2          63.91          114.9
     1.365              -25.27          1.869          45.52          68.52         -19.26         -16.33          116.7          57.23         -101.6          64.05          115.0
     1.406              -25.31          1.872          45.58          68.44         -19.23         -16.26          115.9          57.18         -100.9          64.22          115.1
     1.448              -25.36          1.876          45.64          68.33         -19.18         -16.17          114.8          57.12         -100.0          64.42          115.2
     1.489              -25.41          1.881          45.72          68.21         -19.13         -16.07          113.6          57.05         -99.04          64.65          115.3
      1.53              -25.48          1.886          45.81          68.06         -19.06         -15.95          112.1          56.97         -97.83          64.93          115.5
     1.572              -25.57          1.893          45.92          67.88         -18.98         -15.81          110.3          56.86         -96.37          65.26          115.6
     1.613              -25.67          1.901          46.06          67.67         -18.89         -15.63          108.1          56.74         -94.59          65.68          115.9
     1.654               -25.8          1.911          46.23           67.4         -18.77         -15.41          105.5          56.59         -92.38          66.18          116.1
     1.696              -25.95          1.923          46.44          67.06         -18.62         -15.13          102.1          56.39         -89.63          66.82          116.5
     1.737              -26.15          1.939          46.71          66.64         -18.43         -14.79          97.86          56.15         -86.17          67.62          116.9
     1.779              -26.41          1.959          47.05           66.1          -18.2         -14.35          92.49          55.85         -81.77          68.63          117.5
      1.82              -26.73          1.984          47.48          65.41         -17.89         -13.79           85.6          55.45         -76.14          69.93          118.2
     1.861              -27.15          2.017          48.03          64.53         -17.51         -13.07          76.77          54.95         -68.91           71.6          119.1
     1.903              -27.68          2.059          48.74           63.4         -17.01         -12.15          65.49          54.31         -59.68          73.73          120.3
     1.944              -28.34          2.111          49.64          61.98         -16.39         -10.99          51.31           53.5         -48.07           76.4          121.7
     1.985              -29.16          2.176          50.72          60.25         -15.63         -9.582          34.02          52.51         -33.92          79.67          123.5
     2.027               -30.1           2.25          51.98          58.24         -14.74         -7.948          13.99          51.37         -17.52          83.45          125.6
     2.068              -31.12           2.33          53.35          56.07         -13.79         -6.178          -7.71          50.13         0.2359          87.54          127.8
     2.109              -32.14          2.411          54.71           53.9         -12.84         -4.409          -29.4          48.89          17.99          91.64          130.0
     2.151              -33.08          2.485          55.97           51.9         -11.95         -2.774         -49.44          47.75          34.39          95.42          132.1
     2.192              -33.89          2.549          57.06          50.17         -11.19         -1.364         -66.73          46.76          48.54          98.69          133.9
     2.234              -34.56          2.602          57.95          48.75         -10.57        -0.2075         -80.91          45.95          60.15          101.4          135.3
     2.275              -35.09          2.643          58.66          47.62         -10.07         0.7126         -92.19          45.31          69.38          103.5          136.5
     2.316              -35.51          2.676          59.22          46.74         -9.685          1.433         -101.0           44.8          76.61          105.2          137.4
     2.358              -35.83          2.702          59.65          46.05         -9.382          1.994         -107.9          44.41          82.24          106.5          138.1
     2.399              -36.08          2.722          59.99          45.51         -9.146          2.433         -113.3           44.1          86.64          107.5          138.7
      2.44              -36.28          2.737          60.26          45.09          -8.96          2.778         -117.5          43.86          90.11          108.3          139.1
